<svg xmlns="http://www.w3.org/2000/svg" width="44.028" height="39.623" viewBox="0 0 44.028 39.623"><defs><style>.a{fill:#777;}</style></defs><g transform="translate(-5.089 -9.07)"><path class="a" d="M19.292,48.568l-9.2-11.8h9.2v-.164a5.806,5.806,0,0,0-4.6-5.548v-5.27H9.685v5.27a5.767,5.767,0,0,0-4.6,5.548V57.2h8.134a14.373,14.373,0,0,1,6.07-4.21v-4.42Z" transform="translate(0 -8.505)"/><rect class="a" width="4.978" height="4.982" transform="translate(9.685 9.942)"/><path class="a" d="M34.735,62.716l3.063-3.78,2.932-3.618,1.819-2.243H24.579l4.628,5.581,3.331,4.015v5.812a9.03,9.03,0,0,0-3.331,1.067,8.757,8.757,0,0,0-2.07,1.53H39.99a8.9,8.9,0,0,0-5.255-2.58V62.716Z" transform="translate(-9.915 -22.386)"/><path class="a" d="M50,9.07A14.531,14.531,0,0,0,36.213,28.253h4.894a10.166,10.166,0,1,1,7.562,5.31l-3.108,3.921A14.555,14.555,0,1,0,50,9.07Z" transform="translate(-15.445)"/><path class="a" d="M65.508,21.95l-3.646,7.786a1.13,1.13,0,0,0,.411,1.43l4.87,3.137,1.224-1.9-4.04-2.6,3.229-6.892Z" transform="translate(-28.827 -6.552)"/></g></svg>