<svg xmlns="http://www.w3.org/2000/svg" width="33.905" height="35.176" viewBox="0 0 33.905 35.176"><defs><style>.a{fill:#444;}</style></defs><g transform="translate(-4.135 -3.69)"><g transform="translate(4.135 3.69)"><path class="a" d="M37.318,27.469H4.857a.7.7,0,0,1-.543-.243.672.672,0,0,1-.171-.557L6.1,11.939a.714.714,0,0,1,.7-.629H35.375a.714.714,0,0,1,.7.629l1.957,14.73a.672.672,0,0,1-.171.557A.7.7,0,0,1,37.318,27.469ZM5.671,26.04H36.5l-1.757-13.3H7.428Z" transform="translate(-4.135 -0.423)"/><path class="a" d="M35.5,16.006H5.5V7.262A3.572,3.572,0,0,1,9.072,3.69h22.86A3.572,3.572,0,0,1,35.5,7.262ZM6.929,14.577H34.075V7.262a2.143,2.143,0,0,0-2.143-2.143H9.072A2.143,2.143,0,0,0,6.929,7.262Z" transform="translate(-3.549 -3.69)"/><path class="a" d="M37.315,28.321H4.854a.714.714,0,0,1-.714-.714V22.334a.714.714,0,0,1,.714-.714H37.315a.714.714,0,0,1,.714.714v5.272a.714.714,0,0,1-.714.714ZM5.569,26.892H36.6V23.049H5.569Z" transform="translate(-4.132 3.997)"/><path class="a" d="M4.854,29.6a.714.714,0,0,1-.714-.714V26.024a.714.714,0,0,1,.714-.714.729.729,0,0,1,.714.714v2.857A.714.714,0,0,1,4.854,29.6Z" transform="translate(-4.132 5.579)"/><path class="a" d="M27.574,29.6a.714.714,0,0,1-.714-.714V26.024a.729.729,0,0,1,.714-.714.714.714,0,0,1,.714.714v2.857A.714.714,0,0,1,27.574,29.6Z" transform="translate(5.609 5.579)"/><path class="a" d="M15.182,13.995H8.624a.714.714,0,0,1-.714-.714V9.094a.714.714,0,0,1,.714-.714h6.558a.714.714,0,0,1,.714.714v4.186A.714.714,0,0,1,15.182,13.995ZM9.3,12.566h5.172V9.809H9.339Z" transform="translate(-2.516 -1.679)"/><path class="a" d="M25.772,13.995H19.214a.714.714,0,0,1-.714-.714V9.094a.714.714,0,0,1,.714-.714h6.6a.714.714,0,0,1,.714.714v4.186a.714.714,0,0,1-.757.714Zm-5.886-1.429h5.172V9.809H19.886Z" transform="translate(2.024 -1.679)"/></g></g></svg>