<svg xmlns="http://www.w3.org/2000/svg" width="18.085" height="18.085" viewBox="0 0 18.085 18.085"><defs><style>.a{fill:#b98036;}</style></defs><g transform="translate(-1.326 -1.333)"><path class="a" d="M8.652,5.483c-.235-2.709-3.06-4.039-3.18-4.093a.6.6,0,0,0-.359-.048c-3.261.541-3.751,2.44-3.771,2.519a.611.611,0,0,0,.012.333c3.889,12.075,11.973,14.313,14.63,15.05.2.057.373.1.5.144a.587.587,0,0,0,.19.03.609.609,0,0,0,.255-.055A5,5,0,0,0,19.4,15.468a.615.615,0,0,0-.059-.377,5.846,5.846,0,0,0-3.831-2.67.6.6,0,0,0-.545.129,8.233,8.233,0,0,1-2.616,1.634C8.84,12.467,6.879,9.171,6.805,8.545a6.612,6.612,0,0,1,1.687-2.59A.616.616,0,0,0,8.652,5.483Z" transform="translate(0 0)"/></g></svg>