<svg xmlns="http://www.w3.org/2000/svg" width="14.201" height="11.538" viewBox="0 0 14.201 11.538"><defs><style>.a{fill:#444;}</style></defs><g transform="translate(-128 -144)"><g transform="translate(128 146.663)"><path class="a" d="M141.313,194.351v4.129l-3.023-3.3.927-.627a3.109,3.109,0,0,1-.926-.4l-3.191,2.267-4.977-3.536h7.064a3.044,3.044,0,0,1-.267-.888H128v8.875h14.2v-7.152A3.1,3.1,0,0,1,141.313,194.351Zm-12.426-1.212,3.023,2.045-3.023,3.3Zm6.213,6.849h-5.126l2.527-4.406,2.6,1.757,2.6-1.757,2.527,4.406Z" transform="translate(-128 -192)"/></g><path class="a" d="M306.219,144a2.219,2.219,0,1,0,2.219,2.219A2.219,2.219,0,0,0,306.219,144Zm0,3.906-1.065-1.243h.621v-1.775h.888v1.775h.621Z" transform="translate(-166.237)"/></g></svg>