<svg xmlns="http://www.w3.org/2000/svg" width="12.838" height="12.861" viewBox="0 0 12.838 12.861"><defs><style>.a{fill:none;stroke:#444;stroke-linecap:round;stroke-linejoin:round;}</style></defs><path class="a" d="M17.117,13.879v1.79a1.191,1.191,0,0,1-1.19,1.19c-.038,0-.075,0-.112-.005h0A11.749,11.749,0,0,1,10.638,15l.045.028A11.708,11.708,0,0,1,7.14,11.5l-.028-.046A11.635,11.635,0,0,1,5.29,6.349l0-.053c0-.032,0-.07,0-.107A1.19,1.19,0,0,1,6.469,5h1.8A1.191,1.191,0,0,1,9.444,6.016v.006a7.626,7.626,0,0,0,.434,1.725L9.862,7.7a1.17,1.17,0,0,1,.076.419,1.187,1.187,0,0,1-.344.837l-.756.756a9.6,9.6,0,0,0,3.525,3.547l.046.025.756-.756a1.192,1.192,0,0,1,1.264-.265l-.008,0a7.35,7.35,0,0,0,1.633.412l.04,0a1.192,1.192,0,0,1,1.024,1.179c0,.01,0,.021,0,.031h0Z" transform="translate(-4.78 -4.499)"/></svg>