<svg xmlns="http://www.w3.org/2000/svg" width="38.625" height="31.111" viewBox="0 0 38.625 31.111"><defs><style>.a{fill:none;stroke:#444;stroke-miterlimit:10;stroke-width:1.5px;}</style></defs><g transform="translate(-5.25 -22.25)"><g transform="translate(6 23)"><path class="a" d="M30.75,67.316v6.077H6V67.316a7.175,7.175,0,0,1,5.958-7.076,8.386,8.386,0,0,0,12.835,0A7.175,7.175,0,0,1,30.75,67.316Z" transform="translate(-6 -43.781)"/><path class="a" d="M25.629,36.259h0A6.63,6.63,0,0,1,19,29.629h0A6.63,6.63,0,0,1,25.629,23h0a6.63,6.63,0,0,1,6.629,6.629h0A6.63,6.63,0,0,1,25.629,36.259Z" transform="translate(-13.255 -23)"/><path class="a" d="M65.42,48.8h0A4.42,4.42,0,0,1,61,44.377v-.324a4.42,4.42,0,0,1,4.42-4.42h0a4.42,4.42,0,0,1,4.42,4.42v.324A4.42,4.42,0,0,1,65.42,48.8Z" transform="translate(-36.692 -32.282)"/><path class="a" d="M68,68.21A6.678,6.678,0,0,0,73.745,66a5.571,5.571,0,0,1,3.978,5.3v5.3H68" transform="translate(-40.598 -46.996)"/></g></g></svg>