<svg xmlns="http://www.w3.org/2000/svg" width="58.318" height="39.756" viewBox="0 0 58.318 39.756"><defs><style>.a{fill:#777;}</style></defs><g transform="translate(-5 -19.278)"><path class="a" d="M38.486,28.483h2.783a.649.649,0,0,0,.647-.647v-1.23a7.155,7.155,0,0,0-6.537-7.249A6.962,6.962,0,0,0,28,26.282V47.771a.649.649,0,0,0,.647.647H31.43a.649.649,0,0,0,.647-.647V44.859a.649.649,0,0,1,.647-.647H48.388a.649.649,0,0,1,.647.647v2.913a.649.649,0,0,0,.647.647h2.783a.649.649,0,0,0,.647-.647V26.347a2.923,2.923,0,0,1,2.265-2.913,2.859,2.859,0,0,1,3.43,2.848v1.553a.649.649,0,0,0,.647.647H62.24a.649.649,0,0,0,.647-.647V26.282a6.993,6.993,0,0,0-7.443-6.99,7.155,7.155,0,0,0-6.537,7.249v3.884a.649.649,0,0,1-.647.647H32.725a.649.649,0,0,1-.647-.647V26.412A2.923,2.923,0,0,1,34.343,23.5a2.859,2.859,0,0,1,3.43,2.848V27.9A.7.7,0,0,0,38.486,28.483Zm-5.761,6.731H48.388a.649.649,0,0,1,.647.647v3.625a.649.649,0,0,1-.647.647H32.725a.649.649,0,0,1-.647-.647V35.862A.649.649,0,0,1,32.725,35.215Z" transform="translate(-8.113)"/><path class="a" d="M51.473,64.311c-1.165.906-2.136,2.136-3.43,2.783-2.46,1.23-5.372.194-7.832-1.036s-4.984-2.718-7.7-2.33c-2.071.259-3.819,1.553-5.761,2.33a13.088,13.088,0,0,1-9.774.065,34.432,34.432,0,0,0-3.236-1.359A7.811,7.811,0,0,0,5.194,68.13,1.093,1.093,0,0,0,5,68.777v4.272a1.229,1.229,0,0,0,1.23,1.23H62.088a1.229,1.229,0,0,0,1.23-1.23V65.476a1.175,1.175,0,0,0-.388-.906A9.424,9.424,0,0,0,51.473,64.311Z" transform="translate(0 -15.245)"/></g></svg>