<svg xmlns="http://www.w3.org/2000/svg" width="59.148" height="49.732" viewBox="0 0 59.148 49.732"><defs><style>.a,.b{fill:#777;}.a{fill-rule:evenodd;}</style></defs><g transform="translate(0 0.25)"><g transform="translate(0 -0.25)"><path class="a" d="M254.189,130a1.885,1.885,0,0,0,0,3.663Z" transform="translate(-208.658 -107.278)"/><path class="a" d="M182.963,96.973V91.914c-2.791-.523-2.791-4.71,0-5.059h7.85v4.361h3.838a1.863,1.863,0,0,0,1.4-3.14l-5.582-5.582a6.2,6.2,0,0,0-1.57-.7H178.776a1.9,1.9,0,0,0-.872.174l-5.233,2.791-2.791-5.233c-1.047-2.093-4.361-.349-3.14,1.744l3.663,6.8h0a1.939,1.939,0,0,0,2.442.872h0l4.536-2.442v14.13h.872v11.339a2.443,2.443,0,1,0,4.885,0V100.636h1.4v11.339a2.443,2.443,0,1,0,4.885,0V100.636h.7V96.973Z" transform="translate(-137.432 -64.831)"/><rect class="b" width="6.484" height="8.796" transform="translate(46.229 22.722)"/><path class="a" d="M252.85,58c0,.523.174.872.174,1.4a4.18,4.18,0,0,1-4.012,4.012A4.058,4.058,0,0,1,245,59.4a3.841,3.841,0,0,1,.174-1.4Z" transform="translate(-202.26 -47.838)"/><path class="a" d="M240.183.666a1.8,1.8,0,0,1,3.14,0c3.663-2.268,5.582,2.442,1.919,3.314V9.388H238.09V3.98C234.6,3.108,236.345-1.6,240.183.666Z" transform="translate(-195.001 0.25)"/><path class="a" d="M148.931,36a5.882,5.882,0,0,1,5.931,5.931H143A5.882,5.882,0,0,1,148.931,36Z" transform="translate(-118.054 -29.676)"/><rect class="b" width="13.628" height="0.835" transform="translate(24.074 12.953)"/><circle class="b" cx="0.698" cy="0.698" r="0.698" transform="translate(30.179 4.754)"/><path class="a" d="M3.663,172h30l3.663,16.921H0Z" transform="translate(0 -141.951)"/><rect class="b" width="3.592" height="1.89" transform="translate(2.791 47.842)"/><rect class="b" width="3.592" height="1.89" transform="translate(30.877 47.842)"/><path class="a" d="M92.676,118.523a5.845,5.845,0,0,1,3.314,5.233v2.966H85v-2.966a5.845,5.845,0,0,1,3.314-5.233l.872,2.791.7,1.57.174-3.663q-.523-.262-.523-.523c0-.349.523-.7.872-.7a.8.8,0,0,1,.872.7c0,.174,0,.349-.349.523l.174,3.663.7-1.57Z" transform="translate(-70.172 -97.372)"/><circle class="b" cx="3.314" cy="3.314" r="3.314" transform="translate(16.921 13.302)"/><path class="a" d="M57.268,140.314v1.4c0,.174.349.349.349.349h1.047v.349H55.349v-.349H56.4a.375.375,0,0,0,.349-.349v-1.4A1.794,1.794,0,0,1,55,138.4c0-.349.174-.7.174-1.047l.174-.349h3.314l.174.349a2.213,2.213,0,0,1,.174,1.047A1.794,1.794,0,0,1,57.268,140.314Zm1.221-2.791a1.307,1.307,0,0,1,.174.872,1.66,1.66,0,0,1-3.314,0,7.555,7.555,0,0,1,.174-.872Z" transform="translate(-45.405 -113.057)"/><path class="a" d="M59,143.775v.174a1.371,1.371,0,0,0,2.617.523c-.349,0-.523-.174-.872-.349A2.378,2.378,0,0,0,59,143.775Z" transform="translate(-48.708 -118.611)"/><path class="a" d="M59.174,141h0Z" transform="translate(-48.708 -116.359)"/></g></g></svg>