<svg xmlns="http://www.w3.org/2000/svg" width="37.302" height="37.24" viewBox="0 0 37.302 37.24"><defs><style>.a{fill:#444;}</style></defs><g transform="translate(-10 -10)"><path class="a" d="M40.483,10H16.7a.466.466,0,0,0-.466.466V46.307h-5.77a.466.466,0,1,0,0,.933h36.37a.466.466,0,0,0,0-.933H40.949V10.466A.466.466,0,0,0,40.483,10Zm-23.314.933H40.017V46.307H38.342V13.188a.466.466,0,0,0-.466-.466H19.31a.466.466,0,0,0-.466.466V46.307H17.169ZM37.41,46.307H19.776V13.654H37.41Z"/><path class="a" d="M33.841,55.148a.466.466,0,0,0,.466-.466V51.633a.466.466,0,0,0-.933,0v3.049A.466.466,0,0,0,33.841,55.148Z" transform="translate(-12.476 -21.972)"/><path class="a" d="M44.487,36.458a4.925,4.925,0,1,0-4.925-4.925A4.93,4.93,0,0,0,44.487,36.458Zm0-8.918A3.992,3.992,0,1,1,40.5,31.532,4,4,0,0,1,44.487,27.54Z" transform="translate(-15.778 -8.864)"/><path class="a" d="M49.466,37.113a.466.466,0,0,0,.466-.466V33.091a.466.466,0,1,0-.933,0v3.555A.466.466,0,0,0,49.466,37.113Z" transform="translate(-20.815 -12.075)"/></g></svg>