<svg xmlns="http://www.w3.org/2000/svg" width="58.419" height="44.411" viewBox="0 0 58.419 44.411"><defs><style>.a{fill:#777;}</style></defs><g transform="translate(-5 -20.581)"><path class="a" d="M34.19,28.092a37.285,37.285,0,0,1,24.646,9.3l4.584-5.127C55.6,25.39,45.4,20.581,34.19,20.581,23,20.581,12.807,25.376,5,32.234l4.574,5.132A37.229,37.229,0,0,1,34.19,28.092"/><path class="a" d="M39.365,50.888A22.641,22.641,0,0,1,54.184,56.4l4.844-5.427a30.009,30.009,0,0,0-19.663-7.593A30.043,30.043,0,0,0,19.722,50.95l4.838,5.432a22.682,22.682,0,0,1,14.8-5.493" transform="translate(-5.166 -8)"/><path class="a" d="M54.578,69.721a15.6,15.6,0,0,0-9.97-3.843,15.607,15.607,0,0,0-9.959,3.829l9.959,11.18Z" transform="translate(-10.404 -15.895)"/></g></svg>